<svg width="214" height="112" viewBox="0 0 214 112" fill="none" xmlns="http://www.w3.org/2000/svg">
<rect x="76" y="33" width="12" height="47" rx="6" fill="white"/>
<path d="M129.456 78L119.6 60.592H115.376V78H106.416V33.328H123.184C126.64 33.328 129.584 33.9467 132.016 35.184C134.448 36.3787 136.261 38.0213 137.456 40.112C138.693 42.16 139.312 44.464 139.312 47.024C139.312 49.968 138.459 52.6347 136.752 55.024C135.045 57.3707 132.507 58.992 129.136 59.888L139.824 78H129.456ZM115.376 53.872H122.864C125.296 53.872 127.109 53.296 128.304 52.144C129.499 50.9493 130.096 49.3067 130.096 47.216C130.096 45.168 129.499 43.5893 128.304 42.48C127.109 41.328 125.296 40.752 122.864 40.752H115.376V53.872ZM168.152 78.448C163.971 78.448 160.131 77.4667 156.632 75.504C153.133 73.5413 150.36 70.832 148.312 67.376C146.264 63.8773 145.24 59.9307 145.24 55.536C145.24 51.184 146.264 47.28 148.312 43.824C150.36 40.3253 153.133 37.5947 156.632 35.632C160.131 33.6693 163.971 32.688 168.152 32.688C172.376 32.688 176.216 33.6693 179.672 35.632C183.171 37.5947 185.923 40.3253 187.928 43.824C189.976 47.28 191 51.184 191 55.536C191 59.9307 189.976 63.8773 187.928 67.376C185.923 70.832 183.171 73.5413 179.672 75.504C176.173 77.4667 172.333 78.448 168.152 78.448ZM168.152 70.448C170.84 70.448 173.208 69.8507 175.256 68.656C177.304 67.4187 178.904 65.6693 180.056 63.408C181.208 61.1467 181.784 58.5227 181.784 55.536C181.784 52.5493 181.208 49.9467 180.056 47.728C178.904 45.4667 177.304 43.7387 175.256 42.544C173.208 41.3493 170.84 40.752 168.152 40.752C165.464 40.752 163.075 41.3493 160.984 42.544C158.936 43.7387 157.336 45.4667 156.184 47.728C155.032 49.9467 154.456 52.5493 154.456 55.536C154.456 58.5227 155.032 61.1467 156.184 63.408C157.336 65.6693 158.936 67.4187 160.984 68.656C163.075 69.8507 165.464 70.448 168.152 70.448Z" fill="white"/>
<rect x="21" y="33" width="12" height="47" rx="6" fill="white"/>
<rect x="50" y="33" width="12" height="47" rx="6" fill="white"/>
<circle cx="42" cy="57" r="4" fill="white"/>
</svg>
